<svg xmlns="http://www.w3.org/2000/svg" version="1.1" xmlns:xlink="http://www.w3.org/1999/xlink" width="512" height="512" x="0" y="0" viewBox="0 0 64 64" style="enable-background:new 0 0 512 512" xml:space="preserve" class=""><g><g fill="#68607c"><path d="m13.659 15.62 14.006-5.095.684 1.88-14.006 5.096zM34.287 13.71l1.414-1.414 15.997 15.997-1.414 1.414zM36.862 30.645l.272-1.98 12.004 1.647-.272 1.98zM12.543 20.402l.894-1.788L29.43 26.61l-.894 1.788zM13.214 46.745l.896-1.789 14.32 7.177-.896 1.788zM31 33h2v17h-2z" fill="#68607c" opacity="1" data-original="#68607c" class=""></path><path d="m11.733 39.449 16.85-25.988 1.678 1.088-16.85 25.988zM34.634 50.78l15.777-16.508 1.446 1.382L36.08 52.162z" fill="#68607c" opacity="1" data-original="#68607c" class=""></path><path d="m11.696 22.783 1.72-1.022L29.9 49.502l-1.72 1.022z" fill="#68607c" opacity="1" data-original="#68607c" class=""></path></g><path fill="#4e9bb9" d="M17 44c0 1.13-.26 2.19-.74 3.13A6.977 6.977 0 0 1 10 51c-3.87 0-7-3.13-7-7s3.13-7 7-7c1.41 0 2.71.41 3.8 1.12A6.982 6.982 0 0 1 17 44z" opacity="1" data-original="#4e9bb9" class=""></path><path fill="#91cbd7" d="M37.31 49.45A6.903 6.903 0 0 1 39 54c0 3.87-3.13 7-7 7a6.995 6.995 0 0 1-6.61-9.3c.48-1.41 1.4-2.6 2.6-3.44C29.12 47.46 30.5 47 32 47c2.13 0 4.04.95 5.31 2.45z" opacity="1" data-original="#91cbd7"></path><path fill="#ffd086" d="M54 25c3.87 0 7 3.13 7 7s-3.13 7-7 7a6.87 6.87 0 0 1-4.83-1.95A6.91 6.91 0 0 1 47 32c0-.32.02-.63.07-.94.2-1.56.92-2.95 1.98-4.01A6.958 6.958 0 0 1 54 25z" opacity="1" data-original="#ffd086"></path><path fill="#ed6571" d="M38.93 29.94A6.986 6.986 0 0 1 32 36c-3.87 0-7-3.13-7-7 0-1.13.26-2.19.74-3.13A6.977 6.977 0 0 1 32 22c3.87 0 7 3.13 7 7 0 .32-.02.63-.07.94z" opacity="1" data-original="#ed6571" class=""></path><path fill="#f69489" d="M32 3c3.87 0 7 3.13 7 7 0 1.94-.78 3.68-2.05 4.95S33.94 17 32 17c-1.41 0-2.71-.41-3.8-1.12a6.96 6.96 0 0 1-2.78-3.49c-.27-.74-.42-1.55-.42-2.39 0-3.87 3.13-7 7-7z" opacity="1" data-original="#f69489"></path><path fill="#91cbd7" d="M16.58 15.61c.27.74.42 1.55.42 2.39 0 1.13-.26 2.19-.74 3.13-.6 1.2-1.53 2.2-2.68 2.88-1.04.63-2.27.99-3.58.99-3.87 0-7-3.13-7-7s3.13-7 7-7a7 7 0 0 1 6.58 4.61z" opacity="1" data-original="#91cbd7"></path></g></svg>